# Blender v2.92.0 OBJ File: 'camcorder.blend'
# www.blender.org
v 0.157815 -0.092834 -0.077438
v 0.157815 0.113367 -0.077438
v 0.157815 -0.092834 -0.030188
v 0.157815 0.113367 -0.030188
v -0.157104 -0.092834 -0.077438
v -0.157104 0.113367 -0.077438
v -0.157104 -0.092834 -0.030188
v -0.157104 0.113367 -0.030188
v 0.075166 -0.038718 -0.251814
v 0.075166 0.059251 -0.251814
v -0.074455 0.059251 -0.251814
v -0.074455 -0.038718 -0.251814
v 0.134673 0.098215 -0.030188
v 0.134673 -0.077681 -0.030188
v -0.133962 -0.077681 -0.030188
v -0.133962 0.098215 -0.030188
v 0.134673 0.098215 -0.116957
v 0.134673 -0.077681 -0.116957
v -0.133962 -0.077681 -0.116957
v -0.133962 0.098215 -0.116957
vt 0.375000 0.000000
vt 0.625000 0.000000
vt 0.625000 0.250000
vt 0.375000 0.250000
vt 0.625000 0.500000
vt 0.375000 0.500000
vt 0.375000 0.500000
vt 0.625000 0.500000
vt 0.625000 0.750000
vt 0.375000 0.750000
vt 0.375000 0.000000
vt 0.625000 0.000000
vt 0.125000 0.500000
vt 0.125000 0.750000
vt 0.875000 0.500000
vt 0.875000 0.750000
vt 0.375000 0.750000
vt 0.625000 0.750000
vt 0.625000 1.000000
vt 0.375000 1.000000
vt 0.125000 0.750000
vt 0.875000 0.750000
vt 0.375000 0.500000
vt 0.625000 0.500000
vt 0.125000 0.500000
vt 0.875000 0.500000
vt 0.625000 0.250000
vt 0.375000 0.250000
vt 0.375000 0.250000
vt 0.625000 0.250000
vt 0.125000 0.500000
vt 0.875000 0.500000
vn 1.0000 0.0000 -0.0000
vn 0.0000 0.0000 1.0000
vn -1.0000 0.0000 0.0000
vn 0.9036 0.0000 -0.4283
vn 0.0000 -1.0000 0.0000
vn 0.0000 1.0000 0.0000
vn -0.0000 0.0000 -1.0000
vn -0.0000 -0.9551 -0.2964
vn -0.0000 0.9551 -0.2964
vn -0.9036 0.0000 -0.4283
s off
f 1/1/1 2/2/1 4/3/1 3/4/1
f 8/5/2 7/6/2 15/7/2 16/8/2
f 7/6/3 8/5/3 6/9/3 5/10/3
f 2/2/4 1/1/4 9/11/4 10/12/4
f 3/13/5 7/6/5 5/10/5 1/14/5
f 8/5/6 4/15/6 2/16/6 6/9/6
f 12/17/7 11/18/7 10/19/7 9/20/7
f 1/14/8 5/10/8 12/17/8 9/21/8
f 6/9/9 2/16/9 10/22/9 11/18/9
f 5/10/10 6/9/10 11/18/10 12/17/10
f 16/8/1 15/7/1 19/23/1 20/24/1
f 7/6/2 3/13/2 14/25/2 15/7/2
f 4/15/2 8/5/2 16/8/2 13/26/2
f 3/4/2 4/3/2 13/27/2 14/28/2
f 18/29/2 17/30/2 20/24/2 19/23/2
f 15/7/6 14/25/6 18/31/6 19/23/6
f 13/26/5 16/8/5 20/24/5 17/32/5
f 14/28/3 13/27/3 17/30/3 18/29/3
v 0.109557 -0.072591 -0.518753
v 0.083213 -0.098935 -0.518753
v 0.083213 0.119468 -0.518753
v 0.109557 0.093125 -0.518753
v 0.083213 -0.098935 -0.173596
v 0.109557 -0.072591 -0.173596
v 0.109557 0.093125 -0.173596
v 0.083213 0.119468 -0.173596
v -0.082503 -0.098935 -0.518753
v -0.108846 -0.072591 -0.518753
v -0.108846 0.093125 -0.518753
v -0.082503 0.119468 -0.518753
v -0.108846 -0.072591 -0.173596
v -0.082503 -0.098935 -0.173596
v -0.082503 0.119468 -0.173596
v -0.108846 0.093125 -0.173596
vt 0.375000 0.780155
vt 0.405155 0.750000
vt 0.594845 0.750000
vt 0.625000 0.780155
vt 0.625000 0.969845
vt 0.594845 1.000000
vt 0.405155 1.000000
vt 0.375000 0.969845
vt 0.405155 0.500000
vt 0.594845 0.500000
vt 0.655155 0.500000
vt 0.844845 0.500000
vt 0.844845 0.750000
vt 0.655155 0.750000
vt 0.405155 0.000000
vt 0.594845 0.000000
vt 0.594845 0.250000
vt 0.405155 0.250000
vt 0.375000 0.280155
vt 0.625000 0.280155
vt 0.625000 0.469845
vt 0.375000 0.469845
vt 0.155155 0.500000
vt 0.155155 0.750000
vt 0.125000 0.750000
vt 0.125000 0.500000
vt 0.625000 0.000000
vt 0.625000 0.250000
vt 0.344845 0.750000
vt 0.344845 0.500000
vn -0.0000 0.0000 -1.0000
vn -1.0000 0.0000 0.0000
vn 0.0000 1.0000 0.0000
vn 1.0000 0.0000 -0.0000
vn 0.0000 0.0000 1.0000
vn 0.7071 -0.7071 -0.0000
vn 0.7071 0.7071 -0.0000
vn -0.7071 -0.7071 0.0000
vn -0.7071 0.7071 0.0000
vn 0.0000 -1.0000 0.0000
s off
f 29/33/11 30/34/11 31/35/11 32/36/11 23/37/11 24/38/11 21/39/11 22/40/11
f 33/41/12 36/42/12 31/35/12 30/34/12
f 35/43/13 28/44/13 23/45/13 32/46/13
f 21/47/14 24/48/14 27/49/14 26/50/14
f 25/51/15 26/50/15 27/49/15 28/52/15 35/53/15 36/42/15 33/41/15 34/54/15
f 25/55/16 22/56/16 21/57/16 26/58/16
f 23/59/17 28/60/17 27/49/17 24/48/17
f 29/61/18 34/62/18 33/41/18 30/34/18
f 35/43/19 32/46/19 31/35/19 36/42/19
f 25/55/20 34/62/20 29/61/20 22/56/20
v 0.022058 0.187122 -0.463288
v 0.022058 0.215949 -0.463288
v 0.022058 0.187122 -0.255017
v 0.022058 0.215949 -0.255017
v -0.021348 0.187122 -0.463288
v -0.021348 0.215949 -0.463288
v -0.021348 0.187122 -0.255017
v -0.021348 0.215949 -0.255017
v -0.021348 0.119039 -0.230252
v 0.022058 0.119039 -0.230252
v -0.021348 0.119039 -0.191757
v 0.022059 0.119039 -0.191757
v 0.022058 0.187122 -0.497553
v 0.022058 0.215949 -0.497553
v -0.021348 0.215949 -0.497553
v -0.021348 0.187122 -0.497553
v 0.022058 0.120056 -0.463288
v -0.021348 0.120056 -0.463288
v 0.022058 0.120056 -0.497553
v -0.021348 0.120056 -0.497553
v 0.022058 0.215949 -0.223300
v -0.021348 0.215949 -0.223300
v 0.022058 0.186948 -0.213762
v -0.021348 0.186948 -0.213762
vt 0.375000 0.000000
vt 0.625000 0.000000
vt 0.625000 0.250000
vt 0.375000 0.250000
vt 0.375000 0.500000
vt 0.625000 0.500000
vt 0.625000 0.750000
vt 0.375000 0.750000
vt 0.875000 0.750000
vt 0.875000 0.750000
vt 0.625000 0.750000
vt 0.125000 0.500000
vt 0.125000 0.750000
vt 0.875000 0.500000
vt 0.625000 0.500000
vt 0.875000 0.500000
vt 0.125000 0.500000
vt 0.375000 0.500000
vt 0.125000 0.500000
vt 0.375000 0.500000
vt 0.625000 0.250000
vt 0.444569 0.250000
vt 0.444569 0.500000
vt 0.375000 0.750000
vt 0.625000 1.000000
vt 0.375000 1.000000
vt 0.375000 0.000000
vt 0.625000 0.000000
vt 0.375000 0.000000
vt 0.375000 0.000000
vt 0.125000 0.750000
vt 0.375000 0.750000
vt 0.375000 0.750000
vt 0.125000 0.750000
vt 0.375000 1.000000
vt 0.375000 0.250000
vt 0.375000 0.250000
vt 0.375000 0.500000
vn 1.0000 0.0000 -0.0000
vn -1.0000 0.0000 0.0000
vn 0.0000 1.0000 0.0000
vn 0.0000 -1.0000 0.0000
vn 0.0000 -0.3418 -0.9398
vn 0.0000 0.3124 0.9499
vn 0.0000 0.0000 -1.0000
vn 0.0000 0.0000 1.0000
vn 0.0000 0.3083 0.9513
s off
f 37/63/21 38/64/21 40/65/21 39/66/21
f 43/67/22 44/68/22 42/69/22 41/70/22
f 42/69/23 38/71/23 50/72/23 51/73/23
f 39/74/24 43/67/24 41/70/24 37/75/24
f 44/68/23 40/76/23 38/71/23 42/69/23
f 40/76/23 44/68/23 58/77/23 57/78/23
f 43/67/25 39/74/25 46/79/25 45/80/25
f 45/80/24 46/79/24 48/81/24 47/82/24
f 39/66/21 40/65/21 57/83/21 59/84/21
f 58/77/26 60/85/26 59/84/26 57/83/26
f 44/68/22 43/67/22 60/85/22 58/77/22
f 52/86/27 51/73/27 50/87/27 49/88/27
f 41/70/22 42/69/22 51/73/22 52/86/22
f 38/64/21 37/63/21 49/89/21 50/90/21
f 49/89/21 37/63/21 53/91/21 55/92/21
f 53/93/24 54/94/24 56/95/24 55/96/24
f 41/70/22 52/86/22 56/95/22 54/94/22
f 37/75/28 41/70/28 54/94/28 53/93/28
f 52/86/27 49/88/27 55/97/27 56/95/27
f 59/84/21 48/98/21 46/99/21 39/66/21
f 60/85/29 47/82/29 48/98/29 59/84/29
f 60/100/22 43/67/22 45/80/22 47/82/22
