# Blender v2.92.0 OBJ File: 'spotlight placeholder.blend'
# www.blender.org
mtllib spotlight placeholder.mtl
o Cylinder
v 0.000000 0.514377 -0.706875
v 0.000000 0.514377 0.328880
v 0.100350 0.504493 -0.706875
v 0.100350 0.504493 0.328880
v 0.196844 0.475222 -0.706875
v 0.196844 0.475222 0.328880
v 0.285773 0.427689 -0.706875
v 0.285773 0.427689 0.328880
v 0.363719 0.363719 -0.706875
v 0.363719 0.363719 0.328880
v 0.427689 0.285772 -0.706875
v 0.427689 0.285772 0.328880
v 0.475222 0.196843 -0.706875
v 0.475222 0.196843 0.328880
v 0.504493 0.100350 -0.706875
v 0.504493 0.100350 0.328880
v 0.514377 -0.000000 -0.706875
v 0.514377 -0.000000 0.328880
v 0.504493 -0.100350 -0.706875
v 0.504493 -0.100350 0.328880
v 0.475222 -0.196844 -0.706875
v 0.475222 -0.196844 0.328880
v 0.427689 -0.285773 -0.706875
v 0.427689 -0.285773 0.328880
v 0.363719 -0.363720 -0.706875
v 0.363719 -0.363720 0.328880
v 0.285773 -0.427689 -0.706875
v 0.285773 -0.427689 0.328880
v 0.196843 -0.475222 -0.706875
v 0.196843 -0.475223 0.328880
v 0.100350 -0.504493 -0.706875
v 0.100350 -0.504493 0.328880
v -0.000000 -0.514377 -0.706875
v -0.000000 -0.514377 0.328880
v -0.100350 -0.504493 -0.706875
v -0.100350 -0.504493 0.328880
v -0.196844 -0.475222 -0.706875
v -0.196844 -0.475222 0.328880
v -0.285773 -0.427689 -0.706875
v -0.285773 -0.427689 0.328880
v -0.363720 -0.363719 -0.706875
v -0.363720 -0.363719 0.328880
v -0.427689 -0.285772 -0.706875
v -0.427689 -0.285772 0.328880
v -0.475222 -0.196843 -0.706875
v -0.475222 -0.196843 0.328880
v -0.504493 -0.100350 -0.706875
v -0.504493 -0.100350 0.328880
v -0.514377 0.000000 -0.706875
v -0.514377 0.000000 0.328880
v -0.504493 0.100350 -0.706875
v -0.504493 0.100350 0.328880
v -0.475222 0.196844 -0.706875
v -0.475222 0.196844 0.328880
v -0.427688 0.285773 -0.706875
v -0.427688 0.285773 0.328880
v -0.363719 0.363720 -0.706875
v -0.363719 0.363720 0.328880
v -0.285772 0.427689 -0.706875
v -0.285772 0.427689 0.328880
v -0.196843 0.475223 -0.706875
v -0.196843 0.475222 0.328880
v -0.100349 0.504493 -0.706875
v -0.100349 0.504493 0.328880
v 0.088823 0.446543 0.328880
v 0.000000 0.455291 0.328880
v 0.174232 0.420634 0.328880
v 0.252946 0.378560 0.328880
v 0.321939 0.321939 0.328880
v 0.378561 0.252946 0.328880
v 0.420634 0.174232 0.328880
v 0.446543 0.088823 0.328880
v 0.455291 -0.000000 0.328880
v 0.446543 -0.088823 0.328880
v 0.420634 -0.174232 0.328880
v 0.378561 -0.252946 0.328880
v 0.321939 -0.321939 0.328880
v 0.252946 -0.378561 0.328880
v 0.174232 -0.420634 0.328880
v 0.088823 -0.446543 0.328880
v -0.000000 -0.455291 0.328880
v -0.088823 -0.446543 0.328880
v -0.174232 -0.420634 0.328880
v -0.252946 -0.378561 0.328880
v -0.321940 -0.321939 0.328880
v -0.378561 -0.252946 0.328880
v -0.420634 -0.174232 0.328880
v -0.446543 -0.088823 0.328880
v -0.455291 0.000000 0.328880
v -0.446543 0.088823 0.328880
v -0.420634 0.174233 0.328880
v -0.378560 0.252946 0.328880
v -0.321939 0.321940 0.328880
v -0.252946 0.378561 0.328880
v -0.174232 0.420634 0.328880
v -0.088822 0.446543 0.328880
v 0.088823 0.446543 -0.519564
v 0.000000 0.455291 -0.519564
v 0.174232 0.420634 -0.519564
v 0.252946 0.378560 -0.519564
v 0.321939 0.321939 -0.519564
v 0.378561 0.252946 -0.519564
v 0.420634 0.174232 -0.519564
v 0.446543 0.088823 -0.519564
v 0.455291 -0.000000 -0.519564
v 0.446543 -0.088823 -0.519564
v 0.420634 -0.174232 -0.519564
v 0.378561 -0.252946 -0.519564
v 0.321939 -0.321939 -0.519564
v 0.252946 -0.378561 -0.519564
v 0.174232 -0.420634 -0.519564
v 0.088823 -0.446543 -0.519564
v -0.000000 -0.455291 -0.519564
v -0.088823 -0.446543 -0.519564
v -0.174232 -0.420634 -0.519564
v -0.252946 -0.378561 -0.519564
v -0.321940 -0.321939 -0.519564
v -0.378561 -0.252946 -0.519564
v -0.420634 -0.174232 -0.519564
v -0.446543 -0.088823 -0.519564
v -0.455291 0.000000 -0.519564
v -0.446543 0.088823 -0.519564
v -0.420634 0.174233 -0.519564
v -0.378560 0.252946 -0.519564
v -0.321939 0.321940 -0.519564
v -0.252946 0.378561 -0.519564
v -0.174232 0.420634 -0.519564
v -0.088822 0.446543 -0.519564
v 0.480949 -0.456959 0.297891
v 0.480949 0.456959 0.297891
v 0.497130 -0.456959 0.249200
v 0.497130 0.456959 0.249200
v 1.247673 -0.456959 0.552698
v 1.247673 0.456959 0.552698
v 1.263854 -0.456959 0.504006
v 1.263854 0.456959 0.504006
v -0.456959 -0.480949 0.297891
v 0.456959 -0.480949 0.297891
v -0.456959 -0.497130 0.249200
v 0.456959 -0.497130 0.249200
v -0.456959 -1.247673 0.552698
v 0.456959 -1.247673 0.552698
v -0.456959 -1.263854 0.504006
v 0.456959 -1.263854 0.504006
v -0.480949 0.456959 0.297891
v -0.480949 -0.456959 0.297891
v -0.497130 0.456959 0.249200
v -0.497130 -0.456959 0.249200
v -1.247673 0.456959 0.552698
v -1.247673 -0.456959 0.552698
v -1.263854 0.456959 0.504006
v -1.263855 -0.456959 0.504006
v 0.456959 0.480948 0.297891
v -0.456959 0.480949 0.297891
v 0.456959 0.497130 0.249200
v -0.456959 0.497130 0.249199
v 0.456959 1.247673 0.552698
v -0.456959 1.247673 0.552697
v 0.456959 1.263854 0.504006
v -0.456959 1.263855 0.504006
vt 0.375000 0.000000
vt 0.625000 0.000000
vt 0.625000 0.250000
vt 0.375000 0.250000
vt 0.625000 0.500000
vt 0.375000 0.500000
vt 0.625000 0.750000
vt 0.375000 0.750000
vt 0.625000 1.000000
vt 0.375000 1.000000
vt 0.125000 0.500000
vt 0.125000 0.750000
vt 0.875000 0.500000
vt 0.875000 0.750000
vt 0.375000 0.000000
vt 0.625000 0.000000
vt 0.625000 0.250000
vt 0.375000 0.250000
vt 0.625000 0.500000
vt 0.375000 0.500000
vt 0.625000 0.750000
vt 0.375000 0.750000
vt 0.625000 1.000000
vt 0.375000 1.000000
vt 0.125000 0.500000
vt 0.125000 0.750000
vt 0.875000 0.500000
vt 0.875000 0.750000
vt 0.375000 0.000000
vt 0.625000 0.000000
vt 0.625000 0.250000
vt 0.375000 0.250000
vt 0.625000 0.500000
vt 0.375000 0.500000
vt 0.625000 0.750000
vt 0.375000 0.750000
vt 0.625000 1.000000
vt 0.375000 1.000000
vt 0.125000 0.500000
vt 0.125000 0.750000
vt 0.875000 0.500000
vt 0.875000 0.750000
vt 0.375000 0.000000
vt 0.625000 0.000000
vt 0.625000 0.250000
vt 0.375000 0.250000
vt 0.625000 0.500000
vt 0.375000 0.500000
vt 0.625000 0.750000
vt 0.375000 0.750000
vt 0.625000 1.000000
vt 0.375000 1.000000
vt 0.125000 0.500000
vt 0.125000 0.750000
vt 0.875000 0.500000
vt 0.875000 0.750000
vt 1.000000 0.500000
vt 1.000000 1.000000
vt 0.968750 1.000000
vt 0.968750 0.500000
vt 0.937500 1.000000
vt 0.937500 0.500000
vt 0.906250 1.000000
vt 0.906250 0.500000
vt 0.875000 1.000000
vt 0.875000 0.500000
vt 0.843750 1.000000
vt 0.843750 0.500000
vt 0.812500 1.000000
vt 0.812500 0.500000
vt 0.781250 1.000000
vt 0.781250 0.500000
vt 0.750000 1.000000
vt 0.750000 0.500000
vt 0.718750 1.000000
vt 0.718750 0.500000
vt 0.687500 1.000000
vt 0.687500 0.500000
vt 0.656250 1.000000
vt 0.656250 0.500000
vt 0.625000 1.000000
vt 0.625000 0.500000
vt 0.593750 1.000000
vt 0.593750 0.500000
vt 0.562500 1.000000
vt 0.562500 0.500000
vt 0.531250 1.000000
vt 0.531250 0.500000
vt 0.500000 1.000000
vt 0.500000 0.500000
vt 0.468750 1.000000
vt 0.468750 0.500000
vt 0.437500 1.000000
vt 0.437500 0.500000
vt 0.406250 1.000000
vt 0.406250 0.500000
vt 0.375000 1.000000
vt 0.375000 0.500000
vt 0.343750 1.000000
vt 0.343750 0.500000
vt 0.312500 1.000000
vt 0.312500 0.500000
vt 0.281250 1.000000
vt 0.281250 0.500000
vt 0.250000 1.000000
vt 0.250000 0.500000
vt 0.218750 1.000000
vt 0.218750 0.500000
vt 0.187500 1.000000
vt 0.187500 0.500000
vt 0.156250 1.000000
vt 0.156250 0.500000
vt 0.125000 1.000000
vt 0.125000 0.500000
vt 0.093750 1.000000
vt 0.093750 0.500000
vt 0.062500 1.000000
vt 0.062500 0.500000
vt 0.937500 1.000000
vt 0.906250 1.000000
vt 0.031250 1.000000
vt 0.031250 0.500000
vt 0.000000 1.000000
vt 0.000000 0.500000
vt 0.750000 0.490000
vt 0.796822 0.485388
vt 0.841844 0.471731
vt 0.883337 0.449553
vt 0.919706 0.419706
vt 0.949553 0.383337
vt 0.971731 0.341844
vt 0.985388 0.296822
vt 0.990000 0.250000
vt 0.985388 0.203178
vt 0.971731 0.158156
vt 0.949553 0.116663
vt 0.919706 0.080294
vt 0.883337 0.050447
vt 0.841844 0.028269
vt 0.796822 0.014612
vt 0.750000 0.010000
vt 0.703178 0.014612
vt 0.658156 0.028269
vt 0.616663 0.050447
vt 0.580294 0.080294
vt 0.550447 0.116663
vt 0.528269 0.158156
vt 0.514611 0.203179
vt 0.510000 0.250000
vt 0.514612 0.296822
vt 0.528269 0.341844
vt 0.550447 0.383337
vt 0.580295 0.419706
vt 0.616663 0.449553
vt 0.658156 0.471731
vt 0.703179 0.485389
vt 0.812500 1.000000
vt 0.843750 1.000000
vt 0.843750 1.000000
vt 0.812500 1.000000
vt 0.656250 1.000000
vt 0.625000 1.000000
vt 0.375000 1.000000
vt 0.343750 1.000000
vt 0.093750 1.000000
vt 0.062500 1.000000
vt 0.781250 1.000000
vt 0.750000 1.000000
vt 0.500000 1.000000
vt 0.468750 1.000000
vt 0.218750 1.000000
vt 0.187500 1.000000
vt 0.875000 1.000000
vt 0.593750 1.000000
vt 0.312500 1.000000
vt 0.031250 1.000000
vt 0.718750 1.000000
vt 0.437500 1.000000
vt 0.156250 1.000000
vt 0.562500 1.000000
vt 0.281250 1.000000
vt 1.000000 1.000000
vt 0.968750 1.000000
vt 0.000000 1.000000
vt 0.687500 1.000000
vt 0.406250 1.000000
vt 0.125000 1.000000
vt 0.531250 1.000000
vt 0.250000 1.000000
vt 0.296822 0.485388
vt 0.250000 0.490000
vt 0.203179 0.485389
vt 0.158156 0.471731
vt 0.116663 0.449553
vt 0.080295 0.419706
vt 0.050447 0.383337
vt 0.028269 0.341844
vt 0.014612 0.296822
vt 0.010000 0.250000
vt 0.014611 0.203179
vt 0.028269 0.158156
vt 0.050447 0.116663
vt 0.080294 0.080294
vt 0.116663 0.050447
vt 0.158156 0.028269
vt 0.203178 0.014612
vt 0.250000 0.010000
vt 0.296822 0.014612
vt 0.341844 0.028269
vt 0.383337 0.050447
vt 0.419706 0.080294
vt 0.449553 0.116663
vt 0.471731 0.158156
vt 0.485388 0.203178
vt 0.490000 0.250000
vt 0.485388 0.296822
vt 0.471731 0.341844
vt 0.449553 0.383337
vt 0.419706 0.419706
vt 0.383337 0.449553
vt 0.341844 0.471731
vt 0.406250 1.000000
vt 0.375000 1.000000
vt 0.781250 1.000000
vt 0.343750 1.000000
vt 0.750000 1.000000
vt 0.312500 1.000000
vt 0.718750 1.000000
vt 0.281250 1.000000
vt 0.687500 1.000000
vt 0.250000 1.000000
vt 0.656250 1.000000
vt 0.218750 1.000000
vt 0.625000 1.000000
vt 0.187500 1.000000
vt 0.593750 1.000000
vt 0.156250 1.000000
vt 0.562500 1.000000
vt 1.000000 1.000000
vt 0.968750 1.000000
vt 0.125000 1.000000
vt 0.531250 1.000000
vt 0.937500 1.000000
vt 0.093750 1.000000
vt 0.500000 1.000000
vt 0.906250 1.000000
vt 0.062500 1.000000
vt 0.468750 1.000000
vt 0.875000 1.000000
vt 0.031250 1.000000
vt 0.437500 1.000000
vt 0.000000 1.000000
vn -0.9490 0.0000 -0.3154
vn 0.3154 0.0000 -0.9490
vn 0.9490 0.0000 0.3154
vn -0.3154 0.0000 0.9490
vn 0.0000 -1.0000 0.0000
vn 0.0000 1.0000 0.0000
vn 0.0000 0.9490 -0.3154
vn 0.0000 -0.3154 -0.9490
vn 0.0000 -0.9490 0.3154
vn -0.0000 0.3154 0.9490
vn -1.0000 0.0000 -0.0000
vn 1.0000 -0.0000 0.0000
vn 0.9490 -0.0000 -0.3154
vn -0.3154 0.0000 -0.9490
vn -0.9490 0.0000 0.3154
vn 0.3154 -0.0000 0.9490
vn -0.0000 -0.9490 -0.3154
vn 0.0000 0.3154 -0.9490
vn 0.0000 0.9490 0.3154
vn -0.0000 -0.3154 0.9490
vn 0.1951 0.9808 0.0000
vn 0.3827 0.9239 0.0000
vn 0.5556 0.8315 0.0000
vn 0.7071 0.7071 0.0000
vn 0.8315 0.5556 0.0000
vn 0.9239 0.3827 0.0000
vn 0.9808 0.1951 0.0000
vn 0.9808 -0.1951 -0.0000
vn 0.9239 -0.3827 -0.0000
vn 0.8315 -0.5556 -0.0000
vn 0.7071 -0.7071 -0.0000
vn 0.5556 -0.8315 -0.0000
vn 0.3827 -0.9239 -0.0000
vn 0.1951 -0.9808 -0.0000
vn -0.1951 -0.9808 -0.0000
vn -0.3827 -0.9239 -0.0000
vn -0.5556 -0.8315 -0.0000
vn -0.7071 -0.7071 -0.0000
vn -0.8315 -0.5556 -0.0000
vn -0.9239 -0.3827 -0.0000
vn -0.9808 -0.1951 -0.0000
vn -0.9808 0.1951 0.0000
vn -0.9239 0.3827 0.0000
vn -0.8315 0.5556 0.0000
vn -0.7071 0.7071 0.0000
vn -0.5556 0.8315 0.0000
vn -0.3827 0.9239 0.0000
vn -0.0000 0.0000 1.0000
vn -0.1951 0.9808 0.0000
vn 0.0000 0.0000 -1.0000
usemtl None
s off
f 129/1/1 130/2/1 132/3/1 131/4/1
f 131/4/2 132/3/2 136/5/2 135/6/2
f 135/6/3 136/5/3 134/7/3 133/8/3
f 133/8/4 134/7/4 130/9/4 129/10/4
f 131/11/5 135/6/5 133/8/5 129/12/5
f 136/5/6 132/13/6 130/14/6 134/7/6
f 137/15/7 138/16/7 140/17/7 139/18/7
f 139/18/8 140/17/8 144/19/8 143/20/8
f 143/20/9 144/19/9 142/21/9 141/22/9
f 141/22/10 142/21/10 138/23/10 137/24/10
f 139/25/11 143/20/11 141/22/11 137/26/11
f 144/19/12 140/27/12 138/28/12 142/21/12
f 145/29/13 146/30/13 148/31/13 147/32/13
f 147/32/14 148/31/14 152/33/14 151/34/14
f 151/34/15 152/33/15 150/35/15 149/36/15
f 149/36/16 150/35/16 146/37/16 145/38/16
f 147/39/6 151/34/6 149/36/6 145/40/6
f 152/33/5 148/41/5 146/42/5 150/35/5
f 153/43/17 154/44/17 156/45/17 155/46/17
f 155/46/18 156/45/18 160/47/18 159/48/18
f 159/48/19 160/47/19 158/49/19 157/50/19
f 157/50/20 158/49/20 154/51/20 153/52/20
f 155/53/12 159/48/12 157/50/12 153/54/12
f 160/47/11 156/55/11 154/56/11 158/49/11
s 1
f 1/57/6 2/58/6 4/59/21 3/60/21
f 3/60/21 4/59/21 6/61/22 5/62/22
f 5/62/22 6/61/22 8/63/23 7/64/23
f 7/64/23 8/63/23 10/65/24 9/66/24
f 9/66/24 10/65/24 12/67/25 11/68/25
f 11/68/25 12/67/25 14/69/26 13/70/26
f 13/70/26 14/69/26 16/71/27 15/72/27
f 15/72/27 16/71/27 18/73/12 17/74/12
f 17/74/12 18/73/12 20/75/28 19/76/28
f 19/76/28 20/75/28 22/77/29 21/78/29
f 21/78/29 22/77/29 24/79/30 23/80/30
f 23/80/30 24/79/30 26/81/31 25/82/31
f 25/82/31 26/81/31 28/83/32 27/84/32
f 27/84/32 28/83/32 30/85/33 29/86/33
f 29/86/33 30/85/33 32/87/34 31/88/34
f 31/88/34 32/87/34 34/89/5 33/90/5
f 33/90/5 34/89/5 36/91/35 35/92/35
f 35/92/35 36/91/35 38/93/36 37/94/36
f 37/94/36 38/93/36 40/95/37 39/96/37
f 39/96/37 40/95/37 42/97/38 41/98/38
f 41/98/38 42/97/38 44/99/39 43/100/39
f 43/100/39 44/99/39 46/101/40 45/102/40
f 45/102/40 46/101/40 48/103/41 47/104/41
f 47/104/41 48/103/41 50/105/11 49/106/11
f 49/106/11 50/105/11 52/107/42 51/108/42
f 51/108/42 52/107/42 54/109/43 53/110/43
f 53/110/43 54/109/43 56/111/44 55/112/44
f 55/112/44 56/111/44 58/113/45 57/114/45
f 57/114/45 58/113/45 60/115/46 59/116/46
f 59/116/46 60/115/46 62/117/47 61/118/47
f 8/63/48 6/61/48 67/119/48 68/120/48
f 61/118/47 62/117/47 64/121/49 63/122/49
f 63/122/49 64/121/49 2/123/6 1/124/6
f 1/125/50 3/126/50 5/127/50 7/128/50 9/129/50 11/130/50 13/131/50 15/132/50 17/133/50 19/134/50 21/135/50 23/136/50 25/137/50 27/138/50 29/139/50 31/140/50 33/141/50 35/142/50 37/143/50 39/144/50 41/145/50 43/146/50 45/147/50 47/148/50 49/149/50 51/150/50 53/151/50 55/152/50 57/153/50 59/154/50 61/155/50 63/156/50
f 71/157/40 70/158/39 102/159/39 103/160/40
f 26/81/48 24/79/48 76/161/48 77/162/48
f 44/99/48 42/97/48 85/163/48 86/164/48
f 62/117/48 60/115/48 94/165/48 95/166/48
f 18/73/48 16/71/48 72/167/48 73/168/48
f 36/91/48 34/89/48 81/169/48 82/170/48
f 54/109/48 52/107/48 90/171/48 91/172/48
f 10/65/48 8/63/48 68/120/48 69/173/48
f 28/83/48 26/81/48 77/162/48 78/174/48
f 46/101/48 44/99/48 86/164/48 87/175/48
f 64/121/48 62/117/48 95/166/48 96/176/48
f 20/75/48 18/73/48 73/168/48 74/177/48
f 38/93/48 36/91/48 82/170/48 83/178/48
f 56/111/48 54/109/48 91/172/48 92/179/48
f 12/67/48 10/65/48 69/173/48 70/158/48
f 30/85/48 28/83/48 78/174/48 79/180/48
f 48/103/48 46/101/48 87/175/48 88/181/48
f 4/59/48 2/58/48 66/182/48 65/183/48
f 2/123/48 64/121/48 96/176/48 66/184/48
f 22/77/48 20/75/48 74/177/48 75/185/48
f 40/95/48 38/93/48 83/178/48 84/186/48
f 58/113/48 56/111/48 92/179/48 93/187/48
f 14/69/48 12/67/48 70/158/48 71/157/48
f 32/87/48 30/85/48 79/180/48 80/188/48
f 50/105/48 48/103/48 88/181/48 89/189/48
f 6/61/48 4/59/48 65/183/48 67/119/48
f 24/79/48 22/77/48 75/185/48 76/161/48
f 42/97/48 40/95/48 84/186/48 85/163/48
f 60/115/48 58/113/48 93/187/48 94/165/48
f 16/71/48 14/69/48 71/157/48 72/167/48
f 34/89/48 32/87/48 80/188/48 81/169/48
f 52/107/48 50/105/48 89/189/48 90/171/48
f 97/190/48 98/191/48 128/192/48 127/193/48 126/194/48 125/195/48 124/196/48 123/197/48 122/198/48 121/199/48 120/200/48 119/201/48 118/202/48 117/203/48 116/204/48 115/205/48 114/206/48 113/207/48 112/208/48 111/209/48 110/210/48 109/211/48 108/212/48 107/213/48 106/214/48 105/215/48 104/216/48 103/217/48 102/218/48 101/219/48 100/220/48 99/221/48
f 85/163/24 84/186/23 116/222/23 117/223/24
f 72/167/41 71/157/40 103/160/40 104/224/41
f 86/164/25 85/163/24 117/223/24 118/225/25
f 73/168/11 72/167/41 104/224/41 105/226/11
f 87/175/26 86/164/25 118/225/25 119/227/26
f 74/177/42 73/168/11 105/226/11 106/228/42
f 88/181/27 87/175/26 119/227/26 120/229/27
f 75/185/43 74/177/42 106/228/42 107/230/43
f 89/189/12 88/181/27 120/229/27 121/231/12
f 76/161/44 75/185/43 107/230/43 108/232/44
f 90/171/28 89/189/12 121/231/12 122/233/28
f 77/162/45 76/161/44 108/232/44 109/234/45
f 91/172/29 90/171/28 122/233/28 123/235/29
f 78/174/46 77/162/45 109/234/45 110/236/46
f 92/179/30 91/172/29 123/235/29 124/237/30
f 79/180/47 78/174/46 110/236/46 111/238/47
f 65/183/35 66/182/5 98/239/5 97/240/35
f 93/187/31 92/179/30 124/237/30 125/241/31
f 80/188/49 79/180/47 111/238/47 112/242/49
f 67/119/36 65/183/35 97/240/35 99/243/36
f 94/165/32 93/187/31 125/241/31 126/244/32
f 81/169/6 80/188/49 112/242/49 113/245/6
f 68/120/37 67/119/36 99/243/36 100/246/37
f 95/166/33 94/165/32 126/244/32 127/247/33
f 82/170/21 81/169/6 113/245/6 114/248/21
f 69/173/38 68/120/37 100/246/37 101/249/38
f 96/176/34 95/166/33 127/247/33 128/250/34
f 83/178/22 82/170/21 114/248/21 115/251/22
f 70/158/39 69/173/38 101/249/38 102/159/39
f 66/184/5 96/176/34 128/250/34 98/252/5
f 84/186/23 83/178/22 115/251/22 116/222/23
