# Blender v2.92.0 OBJ File: 'steps.blend'
# www.blender.org
v 0.500000 0.150000 0.000000
v 0.500000 0.000000 0.000000
v 0.500000 0.150000 -0.030000
v 0.500000 0.000000 -0.030000
v 0.500000 0.150000 -0.300000
v 0.500000 0.000000 -0.300000
v 0.000000 0.000000 0.000000
v 0.000000 0.150000 0.000000
v -0.500000 0.150000 0.000000
v -0.500000 0.000000 0.000000
v 0.000000 0.000000 -0.030000
v 0.000000 0.150000 -0.030000
v -0.500000 0.150000 -0.030000
v -0.500000 0.000000 -0.030000
v -0.500000 0.150000 -0.300000
v -0.500000 0.000000 -0.300000
v 0.000000 0.150000 -0.300000
v 0.500000 0.300000 -0.300000
v 0.500000 0.150000 -0.300000
v 0.500000 0.300000 -0.330000
v 0.500000 0.150000 -0.330000
v 0.500000 0.300000 -0.600000
v 0.500000 0.150000 -0.600000
v 0.000000 0.150000 -0.300000
v 0.000000 0.300000 -0.300000
v -0.500000 0.300000 -0.300000
v -0.500000 0.150000 -0.300000
v 0.000000 0.150000 -0.330000
v 0.000000 0.300000 -0.330000
v -0.500000 0.300000 -0.330000
v -0.500000 0.150000 -0.330000
v -0.500000 0.300000 -0.600000
v -0.500000 0.150000 -0.600000
v 0.000000 0.300000 -0.600000
v 0.500000 0.450000 -0.600000
v 0.500000 0.300000 -0.600000
v 0.500000 0.450000 -0.630000
v 0.500000 0.300000 -0.630000
v 0.500000 0.450000 -0.900000
v 0.500000 0.300000 -0.900000
v 0.000000 0.300000 -0.600000
v 0.000000 0.450000 -0.600000
v -0.500000 0.450000 -0.600000
v -0.500000 0.300000 -0.600000
v 0.000000 0.300000 -0.630000
v 0.000000 0.450000 -0.630000
v -0.500000 0.450000 -0.630000
v -0.500000 0.300000 -0.630000
v -0.500000 0.450000 -0.900000
v -0.500000 0.300000 -0.900000
v 0.000000 0.450000 -0.900000
v 0.500000 0.600000 -0.900000
v 0.500000 0.450000 -0.900000
v 0.500000 0.600000 -0.930000
v 0.500000 0.450000 -0.930000
v 0.500000 0.600000 -1.200000
v 0.500000 0.450000 -1.200000
v 0.000000 0.450000 -0.900000
v 0.000000 0.600000 -0.900000
v -0.500000 0.600000 -0.900000
v -0.500000 0.450000 -0.900000
v 0.000000 0.450000 -0.930000
v 0.000000 0.600000 -0.930000
v -0.500000 0.600000 -0.930000
v -0.500000 0.450000 -0.930000
v -0.500000 0.600000 -1.200000
v -0.500000 0.450000 -1.200000
v 0.000000 0.600000 -1.200000
v 0.500000 0.750000 -1.200000
v 0.500000 0.600000 -1.200000
v 0.500000 0.750000 -1.230000
v 0.500000 0.600000 -1.230000
v 0.500000 0.750000 -1.500000
v 0.500000 0.600000 -1.500000
v 0.000000 0.600000 -1.200000
v 0.000000 0.750000 -1.200000
v -0.500000 0.750000 -1.200000
v -0.500000 0.600000 -1.200000
v 0.000000 0.600000 -1.230000
v 0.000000 0.750000 -1.230000
v -0.500000 0.750000 -1.230000
v -0.500000 0.600000 -1.230000
v -0.500000 0.750000 -1.500000
v -0.500000 0.600000 -1.500000
v 0.000000 0.750000 -1.500000
v 0.500000 0.900000 -1.500000
v 0.500000 0.750000 -1.500000
v 0.500000 0.900000 -1.530000
v 0.500000 0.750000 -1.530000
v 0.500000 0.900000 -1.800000
v 0.500000 0.750000 -1.800000
v 0.000000 0.750000 -1.500000
v 0.000000 0.900000 -1.500000
v -0.500000 0.900000 -1.500000
v -0.500000 0.750000 -1.500000
v 0.000000 0.750000 -1.530000
v 0.000000 0.900000 -1.530000
v -0.500000 0.900000 -1.530000
v -0.500000 0.750000 -1.530000
v -0.500000 0.900000 -1.800000
v -0.500000 0.750000 -1.800000
v 0.000000 0.900000 -1.800000
v 0.500000 1.050000 -1.800000
v 0.500000 0.900000 -1.800000
v 0.500000 1.050000 -1.830000
v 0.500000 0.900000 -1.830000
v 0.500000 1.050000 -2.100000
v 0.500000 0.900000 -2.100000
v 0.000000 0.900000 -1.800000
v 0.000000 1.050000 -1.800000
v -0.500000 1.050000 -1.800000
v -0.500000 0.900000 -1.800000
v 0.000000 0.900000 -1.830000
v 0.000000 1.050000 -1.830000
v -0.500000 1.050000 -1.830000
v -0.500000 0.900000 -1.830000
v -0.500000 1.050000 -2.100000
v -0.500000 0.900000 -2.100000
v 0.000000 1.050000 -2.100000
v 0.500000 1.200000 -2.100000
v 0.500000 1.050000 -2.100000
v 0.500000 1.200000 -2.130000
v 0.500000 1.050000 -2.130000
v 0.500000 1.200000 -2.400000
v 0.500000 1.050000 -2.400000
v 0.000000 1.050000 -2.100000
v 0.000000 1.200000 -2.100000
v -0.500000 1.200000 -2.100000
v -0.500000 1.050000 -2.100000
v 0.000000 1.050000 -2.130000
v 0.000000 1.200000 -2.130000
v -0.500000 1.200000 -2.130000
v -0.500000 1.050000 -2.130000
v -0.500000 1.200000 -2.400000
v -0.500000 1.050000 -2.400000
v 0.000000 1.200000 -2.400000
v 0.500000 1.350000 -2.400000
v 0.500000 1.200000 -2.400000
v 0.500000 1.350000 -2.430000
v 0.500000 1.200000 -2.430000
v 0.500000 1.350000 -2.700000
v 0.500000 1.200000 -2.700000
v 0.000000 1.200000 -2.400000
v 0.000000 1.350000 -2.400000
v -0.500000 1.350000 -2.400000
v -0.500000 1.200000 -2.400000
v 0.000000 1.200000 -2.430000
v 0.000000 1.350000 -2.430000
v -0.500000 1.350000 -2.430000
v -0.500000 1.200000 -2.430000
v -0.500000 1.350000 -2.700000
v -0.500000 1.200000 -2.700000
v 0.000000 1.350000 -2.700000
v 0.500000 1.500000 -2.700000
v 0.500000 1.350000 -2.700000
v 0.500000 1.500000 -2.730000
v 0.500000 1.350000 -2.730000
v 0.500000 1.500000 -3.000000
v 0.500000 1.350000 -3.000000
v 0.000000 1.350000 -2.700000
v 0.000000 1.500000 -2.700000
v -0.500000 1.500000 -2.700000
v -0.500000 1.350000 -2.700000
v 0.000000 1.350000 -2.730000
v 0.000000 1.500000 -2.730000
v -0.500000 1.500000 -2.730000
v -0.500000 1.350000 -2.730000
v -0.500000 1.500000 -3.000000
v -0.500000 1.350000 -3.000000
v 0.000000 1.500000 -3.000000
vt 0.500000 0.415000
vt 1.000000 0.415000
vt 1.000000 0.565000
vt 0.500000 0.565000
vt 0.500000 0.415000
vt 0.500000 0.565000
vt 1.000000 0.565000
vt 1.000000 0.415000
vt 0.500000 0.445000
vt 0.500000 0.475000
vt 1.000000 0.475000
vt 1.000000 0.445000
vt 0.500000 0.445000
vt 1.000000 0.445000
vt 1.000000 0.475000
vt 0.500000 0.475000
vt 0.445000 0.415000
vt 0.475000 0.415000
vt 0.475000 0.565000
vt 0.445000 0.565000
vt 0.745000 0.565000
vt 0.745000 0.415000
vt 0.500000 0.745000
vt 1.000000 0.745000
vt 0.000000 0.565000
vt 0.000000 0.415000
vt 0.000000 0.415000
vt 0.000000 0.565000
vt 0.000000 0.445000
vt 0.000000 0.475000
vt 0.000000 0.475000
vt 0.000000 0.445000
vt 0.445000 0.415000
vt 0.475000 0.415000
vt 0.475000 0.565000
vt 0.445000 0.565000
vt 0.445000 0.415000
vt 0.445000 0.565000
vt 0.475000 0.565000
vt 0.475000 0.415000
vt 0.745000 0.415000
vt 0.745000 0.565000
vt 0.000000 0.745000
vt 0.500000 0.415000
vt 1.000000 0.415000
vt 1.000000 0.565000
vt 0.500000 0.565000
vt 0.500000 0.415000
vt 0.500000 0.565000
vt 1.000000 0.565000
vt 1.000000 0.415000
vt 0.500000 0.445000
vt 0.500000 0.475000
vt 1.000000 0.475000
vt 1.000000 0.445000
vt 0.500000 0.445000
vt 1.000000 0.445000
vt 1.000000 0.475000
vt 0.500000 0.475000
vt 0.445000 0.415000
vt 0.475000 0.415000
vt 0.475000 0.565000
vt 0.445000 0.565000
vt 0.745000 0.565000
vt 0.745000 0.415000
vt 0.500000 0.745000
vt 1.000000 0.745000
vt 0.000000 0.565000
vt 0.000000 0.415000
vt 0.000000 0.415000
vt 0.000000 0.565000
vt 0.000000 0.445000
vt 0.000000 0.475000
vt 0.000000 0.475000
vt 0.000000 0.445000
vt 0.445000 0.415000
vt 0.475000 0.415000
vt 0.475000 0.565000
vt 0.445000 0.565000
vt 0.445000 0.415000
vt 0.445000 0.565000
vt 0.475000 0.565000
vt 0.475000 0.415000
vt 0.745000 0.415000
vt 0.745000 0.565000
vt 0.000000 0.745000
vt 0.500000 0.415000
vt 1.000000 0.415000
vt 1.000000 0.565000
vt 0.500000 0.565000
vt 0.500000 0.415000
vt 0.500000 0.565000
vt 1.000000 0.565000
vt 1.000000 0.415000
vt 0.500000 0.445000
vt 0.500000 0.475000
vt 1.000000 0.475000
vt 1.000000 0.445000
vt 0.500000 0.445000
vt 1.000000 0.445000
vt 1.000000 0.475000
vt 0.500000 0.475000
vt 0.445000 0.415000
vt 0.475000 0.415000
vt 0.475000 0.565000
vt 0.445000 0.565000
vt 0.745000 0.565000
vt 0.745000 0.415000
vt 0.500000 0.745000
vt 1.000000 0.745000
vt 0.000000 0.565000
vt 0.000000 0.415000
vt 0.000000 0.415000
vt 0.000000 0.565000
vt 0.000000 0.445000
vt 0.000000 0.475000
vt 0.000000 0.475000
vt 0.000000 0.445000
vt 0.445000 0.415000
vt 0.475000 0.415000
vt 0.475000 0.565000
vt 0.445000 0.565000
vt 0.445000 0.415000
vt 0.445000 0.565000
vt 0.475000 0.565000
vt 0.475000 0.415000
vt 0.745000 0.415000
vt 0.745000 0.565000
vt 0.000000 0.745000
vt 0.500000 0.415000
vt 1.000000 0.415000
vt 1.000000 0.565000
vt 0.500000 0.565000
vt 0.500000 0.415000
vt 0.500000 0.565000
vt 1.000000 0.565000
vt 1.000000 0.415000
vt 0.500000 0.445000
vt 0.500000 0.475000
vt 1.000000 0.475000
vt 1.000000 0.445000
vt 0.500000 0.445000
vt 1.000000 0.445000
vt 1.000000 0.475000
vt 0.500000 0.475000
vt 0.445000 0.415000
vt 0.475000 0.415000
vt 0.475000 0.565000
vt 0.445000 0.565000
vt 0.745000 0.565000
vt 0.745000 0.415000
vt 0.500000 0.745000
vt 1.000000 0.745000
vt 0.000000 0.565000
vt 0.000000 0.415000
vt 0.000000 0.415000
vt 0.000000 0.565000
vt 0.000000 0.445000
vt 0.000000 0.475000
vt 0.000000 0.475000
vt 0.000000 0.445000
vt 0.445000 0.415000
vt 0.475000 0.415000
vt 0.475000 0.565000
vt 0.445000 0.565000
vt 0.445000 0.415000
vt 0.445000 0.565000
vt 0.475000 0.565000
vt 0.475000 0.415000
vt 0.745000 0.415000
vt 0.745000 0.565000
vt 0.000000 0.745000
vt 0.500000 0.415000
vt 1.000000 0.415000
vt 1.000000 0.565000
vt 0.500000 0.565000
vt 0.500000 0.415000
vt 0.500000 0.565000
vt 1.000000 0.565000
vt 1.000000 0.415000
vt 0.500000 0.445000
vt 0.500000 0.475000
vt 1.000000 0.475000
vt 1.000000 0.445000
vt 0.500000 0.445000
vt 1.000000 0.445000
vt 1.000000 0.475000
vt 0.500000 0.475000
vt 0.445000 0.415000
vt 0.475000 0.415000
vt 0.475000 0.565000
vt 0.445000 0.565000
vt 0.745000 0.565000
vt 0.745000 0.415000
vt 0.500000 0.745000
vt 1.000000 0.745000
vt 0.000000 0.565000
vt 0.000000 0.415000
vt 0.000000 0.415000
vt 0.000000 0.565000
vt 0.000000 0.445000
vt 0.000000 0.475000
vt 0.000000 0.475000
vt 0.000000 0.445000
vt 0.445000 0.415000
vt 0.475000 0.415000
vt 0.475000 0.565000
vt 0.445000 0.565000
vt 0.445000 0.415000
vt 0.445000 0.565000
vt 0.475000 0.565000
vt 0.475000 0.415000
vt 0.745000 0.415000
vt 0.745000 0.565000
vt 0.000000 0.745000
vt 0.500000 0.415000
vt 1.000000 0.415000
vt 1.000000 0.565000
vt 0.500000 0.565000
vt 0.500000 0.415000
vt 0.500000 0.565000
vt 1.000000 0.565000
vt 1.000000 0.415000
vt 0.500000 0.445000
vt 0.500000 0.475000
vt 1.000000 0.475000
vt 1.000000 0.445000
vt 0.500000 0.445000
vt 1.000000 0.445000
vt 1.000000 0.475000
vt 0.500000 0.475000
vt 0.445000 0.415000
vt 0.475000 0.415000
vt 0.475000 0.565000
vt 0.445000 0.565000
vt 0.745000 0.565000
vt 0.745000 0.415000
vt 0.500000 0.745000
vt 1.000000 0.745000
vt 0.000000 0.565000
vt 0.000000 0.415000
vt 0.000000 0.415000
vt 0.000000 0.565000
vt 0.000000 0.445000
vt 0.000000 0.475000
vt 0.000000 0.475000
vt 0.000000 0.445000
vt 0.445000 0.415000
vt 0.475000 0.415000
vt 0.475000 0.565000
vt 0.445000 0.565000
vt 0.445000 0.415000
vt 0.445000 0.565000
vt 0.475000 0.565000
vt 0.475000 0.415000
vt 0.745000 0.415000
vt 0.745000 0.565000
vt 0.000000 0.745000
vt 0.500000 0.415000
vt 1.000000 0.415000
vt 1.000000 0.565000
vt 0.500000 0.565000
vt 0.500000 0.415000
vt 0.500000 0.565000
vt 1.000000 0.565000
vt 1.000000 0.415000
vt 0.500000 0.445000
vt 0.500000 0.475000
vt 1.000000 0.475000
vt 1.000000 0.445000
vt 0.500000 0.445000
vt 1.000000 0.445000
vt 1.000000 0.475000
vt 0.500000 0.475000
vt 0.445000 0.415000
vt 0.475000 0.415000
vt 0.475000 0.565000
vt 0.445000 0.565000
vt 0.745000 0.565000
vt 0.745000 0.415000
vt 0.500000 0.745000
vt 1.000000 0.745000
vt 0.000000 0.565000
vt 0.000000 0.415000
vt 0.000000 0.415000
vt 0.000000 0.565000
vt 0.000000 0.445000
vt 0.000000 0.475000
vt 0.000000 0.475000
vt 0.000000 0.445000
vt 0.445000 0.415000
vt 0.475000 0.415000
vt 0.475000 0.565000
vt 0.445000 0.565000
vt 0.445000 0.415000
vt 0.445000 0.565000
vt 0.475000 0.565000
vt 0.475000 0.415000
vt 0.745000 0.415000
vt 0.745000 0.565000
vt 0.000000 0.745000
vt 0.500000 0.415000
vt 1.000000 0.415000
vt 1.000000 0.565000
vt 0.500000 0.565000
vt 0.500000 0.415000
vt 0.500000 0.565000
vt 1.000000 0.565000
vt 1.000000 0.415000
vt 0.500000 0.445000
vt 0.500000 0.475000
vt 1.000000 0.475000
vt 1.000000 0.445000
vt 0.500000 0.445000
vt 1.000000 0.445000
vt 1.000000 0.475000
vt 0.500000 0.475000
vt 0.445000 0.415000
vt 0.475000 0.415000
vt 0.475000 0.565000
vt 0.445000 0.565000
vt 0.745000 0.565000
vt 0.745000 0.415000
vt 0.500000 0.745000
vt 1.000000 0.745000
vt 0.000000 0.565000
vt 0.000000 0.415000
vt 0.000000 0.415000
vt 0.000000 0.565000
vt 0.000000 0.445000
vt 0.000000 0.475000
vt 0.000000 0.475000
vt 0.000000 0.445000
vt 0.445000 0.415000
vt 0.475000 0.415000
vt 0.475000 0.565000
vt 0.445000 0.565000
vt 0.445000 0.415000
vt 0.445000 0.565000
vt 0.475000 0.565000
vt 0.475000 0.415000
vt 0.745000 0.415000
vt 0.745000 0.565000
vt 0.000000 0.745000
vt 0.500000 0.415000
vt 1.000000 0.415000
vt 1.000000 0.565000
vt 0.500000 0.565000
vt 0.500000 0.415000
vt 0.500000 0.565000
vt 1.000000 0.565000
vt 1.000000 0.415000
vt 0.500000 0.445000
vt 0.500000 0.475000
vt 1.000000 0.475000
vt 1.000000 0.445000
vt 0.500000 0.445000
vt 1.000000 0.445000
vt 1.000000 0.475000
vt 0.500000 0.475000
vt 0.445000 0.415000
vt 0.475000 0.415000
vt 0.475000 0.565000
vt 0.445000 0.565000
vt 0.745000 0.565000
vt 0.745000 0.415000
vt 0.500000 0.745000
vt 1.000000 0.745000
vt 0.000000 0.565000
vt 0.000000 0.415000
vt 0.000000 0.415000
vt 0.000000 0.565000
vt 0.000000 0.445000
vt 0.000000 0.475000
vt 0.000000 0.475000
vt 0.000000 0.445000
vt 0.445000 0.415000
vt 0.475000 0.415000
vt 0.475000 0.565000
vt 0.445000 0.565000
vt 0.445000 0.415000
vt 0.445000 0.565000
vt 0.475000 0.565000
vt 0.475000 0.415000
vt 0.745000 0.415000
vt 0.745000 0.565000
vt 0.000000 0.745000
vt 0.500000 0.415000
vt 1.000000 0.415000
vt 1.000000 0.565000
vt 0.500000 0.565000
vt 0.500000 0.415000
vt 0.500000 0.565000
vt 1.000000 0.565000
vt 1.000000 0.415000
vt 0.500000 0.445000
vt 0.500000 0.475000
vt 1.000000 0.475000
vt 1.000000 0.445000
vt 0.500000 0.445000
vt 1.000000 0.445000
vt 1.000000 0.475000
vt 0.500000 0.475000
vt 0.445000 0.415000
vt 0.475000 0.415000
vt 0.475000 0.565000
vt 0.445000 0.565000
vt 0.745000 0.565000
vt 0.745000 0.415000
vt 0.500000 0.745000
vt 1.000000 0.745000
vt 0.000000 0.565000
vt 0.000000 0.415000
vt 0.000000 0.415000
vt 0.000000 0.565000
vt 0.000000 0.445000
vt 0.000000 0.475000
vt 0.000000 0.475000
vt 0.000000 0.445000
vt 0.445000 0.415000
vt 0.475000 0.415000
vt 0.475000 0.565000
vt 0.445000 0.565000
vt 0.445000 0.415000
vt 0.445000 0.565000
vt 0.475000 0.565000
vt 0.475000 0.415000
vt 0.745000 0.415000
vt 0.745000 0.565000
vt 0.000000 0.745000
vn 0.0000 0.0000 1.0000
vn 0.0000 0.0000 -1.0000
vn 0.0000 -1.0000 0.0000
vn 0.0000 1.0000 0.0000
vn 1.0000 0.0000 0.0000
vn -1.0000 0.0000 0.0000
s off
f 7/1/1 2/2/1 1/3/1 8/4/1
f 11/5/2 12/6/2 3/7/2 4/8/2
f 7/9/3 11/10/3 4/11/3 2/12/3
f 8/13/4 1/14/4 3/15/4 12/16/4
f 2/17/5 4/18/5 3/19/5 1/20/5
f 4/18/6 3/19/6 5/21/6 6/22/6
f 17/23/4 12/16/4 3/15/4 5/24/4
f 7/1/1 8/4/1 9/25/1 10/26/1
f 11/5/2 14/27/2 13/28/2 12/6/2
f 7/9/3 10/29/3 14/30/3 11/10/3
f 8/13/4 12/16/4 13/31/4 9/32/4
f 7/33/5 11/34/5 12/35/5 8/36/5
f 10/37/6 9/38/6 13/39/6 14/40/6
f 14/40/5 16/41/5 15/42/5 13/39/5
f 17/23/4 15/43/4 13/31/4 12/16/4
f 24/44/1 19/45/1 18/46/1 25/47/1
f 28/48/2 29/49/2 20/50/2 21/51/2
f 24/52/3 28/53/3 21/54/3 19/55/3
f 25/56/4 18/57/4 20/58/4 29/59/4
f 19/60/5 21/61/5 20/62/5 18/63/5
f 21/61/6 20/62/6 22/64/6 23/65/6
f 34/66/4 29/59/4 20/58/4 22/67/4
f 24/44/1 25/47/1 26/68/1 27/69/1
f 28/48/2 31/70/2 30/71/2 29/49/2
f 24/52/3 27/72/3 31/73/3 28/53/3
f 25/56/4 29/59/4 30/74/4 26/75/4
f 24/76/5 28/77/5 29/78/5 25/79/5
f 27/80/6 26/81/6 30/82/6 31/83/6
f 31/83/5 33/84/5 32/85/5 30/82/5
f 34/66/4 32/86/4 30/74/4 29/59/4
f 41/87/1 36/88/1 35/89/1 42/90/1
f 45/91/2 46/92/2 37/93/2 38/94/2
f 41/95/3 45/96/3 38/97/3 36/98/3
f 42/99/4 35/100/4 37/101/4 46/102/4
f 36/103/5 38/104/5 37/105/5 35/106/5
f 38/104/6 37/105/6 39/107/6 40/108/6
f 51/109/4 46/102/4 37/101/4 39/110/4
f 41/87/1 42/90/1 43/111/1 44/112/1
f 45/91/2 48/113/2 47/114/2 46/92/2
f 41/95/3 44/115/3 48/116/3 45/96/3
f 42/99/4 46/102/4 47/117/4 43/118/4
f 41/119/5 45/120/5 46/121/5 42/122/5
f 44/123/6 43/124/6 47/125/6 48/126/6
f 48/126/5 50/127/5 49/128/5 47/125/5
f 51/109/4 49/129/4 47/117/4 46/102/4
f 58/130/1 53/131/1 52/132/1 59/133/1
f 62/134/2 63/135/2 54/136/2 55/137/2
f 58/138/3 62/139/3 55/140/3 53/141/3
f 59/142/4 52/143/4 54/144/4 63/145/4
f 53/146/5 55/147/5 54/148/5 52/149/5
f 55/147/6 54/148/6 56/150/6 57/151/6
f 68/152/4 63/145/4 54/144/4 56/153/4
f 58/130/1 59/133/1 60/154/1 61/155/1
f 62/134/2 65/156/2 64/157/2 63/135/2
f 58/138/3 61/158/3 65/159/3 62/139/3
f 59/142/4 63/145/4 64/160/4 60/161/4
f 58/162/5 62/163/5 63/164/5 59/165/5
f 61/166/6 60/167/6 64/168/6 65/169/6
f 65/169/5 67/170/5 66/171/5 64/168/5
f 68/152/4 66/172/4 64/160/4 63/145/4
f 75/173/1 70/174/1 69/175/1 76/176/1
f 79/177/2 80/178/2 71/179/2 72/180/2
f 75/181/3 79/182/3 72/183/3 70/184/3
f 76/185/4 69/186/4 71/187/4 80/188/4
f 70/189/5 72/190/5 71/191/5 69/192/5
f 72/190/6 71/191/6 73/193/6 74/194/6
f 85/195/4 80/188/4 71/187/4 73/196/4
f 75/173/1 76/176/1 77/197/1 78/198/1
f 79/177/2 82/199/2 81/200/2 80/178/2
f 75/181/3 78/201/3 82/202/3 79/182/3
f 76/185/4 80/188/4 81/203/4 77/204/4
f 75/205/5 79/206/5 80/207/5 76/208/5
f 78/209/6 77/210/6 81/211/6 82/212/6
f 82/212/5 84/213/5 83/214/5 81/211/5
f 85/195/4 83/215/4 81/203/4 80/188/4
f 92/216/1 87/217/1 86/218/1 93/219/1
f 96/220/2 97/221/2 88/222/2 89/223/2
f 92/224/3 96/225/3 89/226/3 87/227/3
f 93/228/4 86/229/4 88/230/4 97/231/4
f 87/232/5 89/233/5 88/234/5 86/235/5
f 89/233/6 88/234/6 90/236/6 91/237/6
f 102/238/4 97/231/4 88/230/4 90/239/4
f 92/216/1 93/219/1 94/240/1 95/241/1
f 96/220/2 99/242/2 98/243/2 97/221/2
f 92/224/3 95/244/3 99/245/3 96/225/3
f 93/228/4 97/231/4 98/246/4 94/247/4
f 92/248/5 96/249/5 97/250/5 93/251/5
f 95/252/6 94/253/6 98/254/6 99/255/6
f 99/255/5 101/256/5 100/257/5 98/254/5
f 102/238/4 100/258/4 98/246/4 97/231/4
f 109/259/1 104/260/1 103/261/1 110/262/1
f 113/263/2 114/264/2 105/265/2 106/266/2
f 109/267/3 113/268/3 106/269/3 104/270/3
f 110/271/4 103/272/4 105/273/4 114/274/4
f 104/275/5 106/276/5 105/277/5 103/278/5
f 106/276/6 105/277/6 107/279/6 108/280/6
f 119/281/4 114/274/4 105/273/4 107/282/4
f 109/259/1 110/262/1 111/283/1 112/284/1
f 113/263/2 116/285/2 115/286/2 114/264/2
f 109/267/3 112/287/3 116/288/3 113/268/3
f 110/271/4 114/274/4 115/289/4 111/290/4
f 109/291/5 113/292/5 114/293/5 110/294/5
f 112/295/6 111/296/6 115/297/6 116/298/6
f 116/298/5 118/299/5 117/300/5 115/297/5
f 119/281/4 117/301/4 115/289/4 114/274/4
f 126/302/1 121/303/1 120/304/1 127/305/1
f 130/306/2 131/307/2 122/308/2 123/309/2
f 126/310/3 130/311/3 123/312/3 121/313/3
f 127/314/4 120/315/4 122/316/4 131/317/4
f 121/318/5 123/319/5 122/320/5 120/321/5
f 123/319/6 122/320/6 124/322/6 125/323/6
f 136/324/4 131/317/4 122/316/4 124/325/4
f 126/302/1 127/305/1 128/326/1 129/327/1
f 130/306/2 133/328/2 132/329/2 131/307/2
f 126/310/3 129/330/3 133/331/3 130/311/3
f 127/314/4 131/317/4 132/332/4 128/333/4
f 126/334/5 130/335/5 131/336/5 127/337/5
f 129/338/6 128/339/6 132/340/6 133/341/6
f 133/341/5 135/342/5 134/343/5 132/340/5
f 136/324/4 134/344/4 132/332/4 131/317/4
f 143/345/1 138/346/1 137/347/1 144/348/1
f 147/349/2 148/350/2 139/351/2 140/352/2
f 143/353/3 147/354/3 140/355/3 138/356/3
f 144/357/4 137/358/4 139/359/4 148/360/4
f 138/361/5 140/362/5 139/363/5 137/364/5
f 140/362/6 139/363/6 141/365/6 142/366/6
f 153/367/4 148/360/4 139/359/4 141/368/4
f 143/345/1 144/348/1 145/369/1 146/370/1
f 147/349/2 150/371/2 149/372/2 148/350/2
f 143/353/3 146/373/3 150/374/3 147/354/3
f 144/357/4 148/360/4 149/375/4 145/376/4
f 143/377/5 147/378/5 148/379/5 144/380/5
f 146/381/6 145/382/6 149/383/6 150/384/6
f 150/384/5 152/385/5 151/386/5 149/383/5
f 153/367/4 151/387/4 149/375/4 148/360/4
f 160/388/1 155/389/1 154/390/1 161/391/1
f 164/392/2 165/393/2 156/394/2 157/395/2
f 160/396/3 164/397/3 157/398/3 155/399/3
f 161/400/4 154/401/4 156/402/4 165/403/4
f 155/404/5 157/405/5 156/406/5 154/407/5
f 157/405/6 156/406/6 158/408/6 159/409/6
f 170/410/4 165/403/4 156/402/4 158/411/4
f 160/388/1 161/391/1 162/412/1 163/413/1
f 164/392/2 167/414/2 166/415/2 165/393/2
f 160/396/3 163/416/3 167/417/3 164/397/3
f 161/400/4 165/403/4 166/418/4 162/419/4
f 160/420/5 164/421/5 165/422/5 161/423/5
f 163/424/6 162/425/6 166/426/6 167/427/6
f 167/427/5 169/428/5 168/429/5 166/426/5
f 170/410/4 168/430/4 166/418/4 165/403/4
