# Blender v2.90.1 OBJ File: ''
# www.blender.org
mtllib arrow.mtl
o Cube_Cube.001
v -0.060153 -0.051517 0.000000
v -0.060153 0.051517 0.000000
v -0.060153 -0.051517 -0.902288
v -0.060153 0.051517 -0.902288
v 0.060153 -0.051517 0.000000
v 0.060153 0.051517 0.000000
v 0.060153 -0.051517 -0.902288
v 0.060153 0.051517 -0.902288
v -0.060153 0.051517 -1.027686
v -0.060153 -0.051517 -1.027686
v 0.060153 -0.051517 -1.027686
v 0.060153 0.051517 -1.027686
v -0.360441 0.051517 -0.546153
v -0.360441 -0.051517 -0.546153
v 0.360441 0.051517 -0.546153
v 0.360441 -0.051517 -0.546153
v -0.360441 0.051517 -0.671551
v -0.360441 -0.051517 -0.671551
v 0.360441 0.051517 -0.671551
v 0.360441 -0.051517 -0.671551
vt 0.375000 0.000000
vt 0.625000 0.000000
vt 0.625000 0.250000
vt 0.375000 0.250000
vt 0.875000 0.500000
vt 0.625000 0.500000
vt 0.625000 0.500000
vt 0.875000 0.500000
vt 0.375000 0.500000
vt 0.625000 0.750000
vt 0.375000 0.750000
vt 0.625000 1.000000
vt 0.375000 1.000000
vt 0.125000 0.500000
vt 0.125000 0.750000
vt 0.875000 0.750000
vt 0.375000 0.250000
vt 0.625000 0.250000
vt 0.375000 0.500000
vt 0.625000 0.500000
vt 0.625000 0.500000
vt 0.125000 0.500000
vt 0.125000 0.500000
vt 0.125000 0.500000
vt 0.375000 0.250000
vt 0.625000 0.250000
vt 0.625000 0.250000
vt 0.375000 0.250000
vt 0.375000 0.500000
vt 0.375000 0.500000
vt 0.875000 0.500000
vt 0.875000 0.500000
vn -1.0000 0.0000 0.0000
vn 0.0000 1.0000 0.0000
vn 1.0000 0.0000 0.0000
vn 0.0000 0.0000 1.0000
vn 0.0000 -1.0000 0.0000
vn 0.0000 0.0000 -1.0000
vn 0.7645 0.0000 0.6446
vn -0.7645 0.0000 -0.6446
vn -0.7645 0.0000 0.6446
vn 0.7645 0.0000 -0.6446
usemtl None
s off
f 1/1/1 2/2/1 4/3/1 3/4/1
f 4/5/2 8/6/2 12/7/2 9/8/2
f 7/9/3 8/6/3 6/10/3 5/11/3
f 5/11/4 6/10/4 2/12/4 1/13/4
f 3/14/5 7/9/5 5/11/5 1/15/5
f 8/6/2 4/5/2 2/16/2 6/10/2
f 10/17/6 9/18/6 12/7/6 11/19/6
f 12/7/2 8/6/2 15/20/2 19/21/2
f 10/22/5 3/14/5 14/23/5 18/24/5
f 7/9/5 3/14/5 10/22/5 11/19/5
f 14/25/1 13/26/1 17/27/1 18/28/1
f 15/20/3 16/29/3 20/30/3 19/21/3
f 3/4/7 4/3/7 13/26/7 14/25/7
f 9/18/8 10/17/8 18/28/8 17/27/8
f 7/9/5 11/19/5 20/30/5 16/29/5
f 4/5/2 9/8/2 17/31/2 13/32/2
f 8/6/9 7/9/9 16/29/9 15/20/9
f 11/19/10 12/7/10 19/21/10 20/30/10
