# Blender v2.91.0 OBJ File: ''
# www.blender.org
mtllib grapple_indicator.mtl
o Circle
v -0.195090 0.980785 -0.000000
v -0.382683 0.923879 -0.000000
v -0.555570 0.831469 -0.000000
v -0.707107 0.707106 -0.000000
v -0.831470 0.555570 -0.000000
v -0.923879 0.382683 -0.000000
v -0.980785 0.195090 -0.000000
v -0.146159 0.734793 -0.000000
v -0.286702 0.692159 -0.000000
v -0.416227 0.622927 -0.000000
v -0.529756 0.529756 -0.000000
v -0.622927 0.416226 -0.000000
v -0.692160 0.286702 -0.000000
v -0.734793 0.146159 -0.000000
v -0.195090 1.543927 -0.000000
v -1.434480 0.195090 -0.000000
v 0.000000 1.000000 -0.000000
v 0.195090 0.980785 -0.000000
v 0.382683 0.923879 -0.000000
v 0.555570 0.831469 -0.000000
v 0.707107 0.707106 -0.000000
v 0.831470 0.555570 -0.000000
v 0.923879 0.382683 -0.000000
v 0.980785 0.195090 -0.000000
v 0.000000 0.749188 -0.000000
v 0.146159 0.734793 -0.000000
v 0.286702 0.692159 -0.000000
v 0.416227 0.622927 -0.000000
v 0.529756 0.529756 -0.000000
v 0.622927 0.416226 -0.000000
v 0.692160 0.286702 -0.000000
v 0.734793 0.146159 -0.000000
v 0.000000 1.725388 -0.000000
v 0.195090 1.543927 -0.000000
v 1.434480 0.195090 -0.000000
v -0.195090 -0.980785 -0.000000
v -0.382683 -0.923879 -0.000000
v -0.555570 -0.831469 -0.000000
v -0.707107 -0.707106 -0.000000
v -0.831470 -0.555570 -0.000000
v -0.923879 -0.382683 -0.000000
v -0.980785 -0.195090 -0.000000
v -1.000000 0.000000 -0.000000
v -0.146159 -0.734793 -0.000000
v -0.286702 -0.692159 -0.000000
v -0.416227 -0.622927 -0.000000
v -0.529756 -0.529756 -0.000000
v -0.622927 -0.416226 -0.000000
v -0.692160 -0.286702 -0.000000
v -0.734793 -0.146159 -0.000000
v -0.749188 0.000000 -0.000000
v -0.195090 -1.543927 -0.000000
v -1.434480 -0.195090 -0.000000
v -1.588918 0.000000 -0.000000
v 0.000000 -1.000000 -0.000000
v 0.195090 -0.980785 -0.000000
v 0.382683 -0.923879 -0.000000
v 0.555570 -0.831469 -0.000000
v 0.707107 -0.707106 -0.000000
v 0.831470 -0.555570 -0.000000
v 0.923879 -0.382683 -0.000000
v 0.980785 -0.195090 -0.000000
v 1.000000 0.000000 -0.000000
v 0.000000 -0.749188 -0.000000
v 0.146159 -0.734793 -0.000000
v 0.286702 -0.692159 -0.000000
v 0.416227 -0.622927 -0.000000
v 0.529756 -0.529756 -0.000000
v 0.622927 -0.416226 -0.000000
v 0.692160 -0.286702 -0.000000
v 0.734793 -0.146159 -0.000000
v 0.749188 0.000000 -0.000000
v 0.000000 -1.725388 -0.000000
v 0.195090 -1.543927 -0.000000
v 1.434480 -0.195090 -0.000000
v 1.588918 0.000000 -0.000000
vt -0.068443 0.613070
vt -0.035462 0.721795
vt 0.098838 0.666166
vt 0.074129 0.584711
vt -0.079580 0.500000
vt 0.065786 0.500000
vt 0.386930 1.068443
vt 0.500000 1.079580
vt 0.500000 0.934214
vt 0.415289 0.925871
vt 0.278204 1.035462
vt 0.333833 0.901162
vt 0.178003 0.981903
vt 0.258763 0.861036
vt 0.090175 0.909825
vt 0.192964 0.807036
vt 0.018097 0.821997
vt 0.138964 0.741236
vt 0.386930 1.394829
vt 0.500000 1.500000
vt -0.420904 0.500000
vt -0.331395 0.613070
vt -0.068443 0.613070
vt 0.074129 0.584711
vt 0.098838 0.666166
vt -0.035462 0.721795
vt -0.079580 0.500000
vt 0.065786 0.500000
vt 0.386930 1.068443
vt 0.415289 0.925871
vt 0.278204 1.035462
vt 0.333833 0.901162
vt 0.178003 0.981903
vt 0.258763 0.861036
vt 0.090175 0.909825
vt 0.192964 0.807036
vt 0.018097 0.821997
vt 0.138964 0.741236
vt 0.386930 1.394829
vt -0.331395 0.613070
vt -0.420904 0.500000
vt -0.068443 0.613070
vt 0.074129 0.584711
vt 0.098838 0.666166
vt -0.035462 0.721795
vt 0.386930 1.068443
vt 0.415289 0.925871
vt 0.500000 0.934214
vt 0.500000 1.079580
vt 0.278204 1.035462
vt 0.333833 0.901162
vt 0.178003 0.981903
vt 0.258763 0.861036
vt 0.090175 0.909825
vt 0.192964 0.807036
vt 0.018097 0.821997
vt 0.138964 0.741236
vt 0.500000 1.500000
vt 0.386930 1.394829
vt -0.331395 0.613070
vt -0.068443 0.613070
vt -0.035462 0.721795
vt 0.098838 0.666166
vt 0.074129 0.584711
vt 0.386930 1.068443
vt 0.415289 0.925871
vt 0.278204 1.035462
vt 0.333833 0.901162
vt 0.178003 0.981903
vt 0.258763 0.861036
vt 0.090175 0.909825
vt 0.192964 0.807036
vt 0.018097 0.821997
vt 0.138964 0.741236
vt 0.386930 1.394829
vt -0.331395 0.613070
vn 0.0000 0.0000 -1.0000
usemtl None
s off
f 7/1/1 6/2/1 13/3/1 14/4/1
f 43/5/1 7/1/1 14/4/1 51/6/1
f 1/7/1 17/8/1 25/9/1 8/10/1
f 2/11/1 1/7/1 8/10/1 9/12/1
f 3/13/1 2/11/1 9/12/1 10/14/1
f 4/15/1 3/13/1 10/14/1 11/16/1
f 5/17/1 4/15/1 11/16/1 12/18/1
f 6/2/1 5/17/1 12/18/1 13/3/1
f 17/8/1 1/7/1 15/19/1 33/20/1
f 7/1/1 43/5/1 54/21/1 16/22/1
f 24/23/1 32/24/1 31/25/1 23/26/1
f 63/27/1 72/28/1 32/24/1 24/23/1
f 18/29/1 26/30/1 25/9/1 17/8/1
f 19/31/1 27/32/1 26/30/1 18/29/1
f 20/33/1 28/34/1 27/32/1 19/31/1
f 21/35/1 29/36/1 28/34/1 20/33/1
f 22/37/1 30/38/1 29/36/1 21/35/1
f 23/26/1 31/25/1 30/38/1 22/37/1
f 17/8/1 33/20/1 34/39/1 18/29/1
f 24/23/1 35/40/1 76/41/1 63/27/1
f 42/42/1 50/43/1 49/44/1 41/45/1
f 43/5/1 51/6/1 50/43/1 42/42/1
f 36/46/1 44/47/1 64/48/1 55/49/1
f 37/50/1 45/51/1 44/47/1 36/46/1
f 38/52/1 46/53/1 45/51/1 37/50/1
f 39/54/1 47/55/1 46/53/1 38/52/1
f 40/56/1 48/57/1 47/55/1 39/54/1
f 41/45/1 49/44/1 48/57/1 40/56/1
f 55/49/1 73/58/1 52/59/1 36/46/1
f 42/42/1 53/60/1 54/21/1 43/5/1
f 62/61/1 61/62/1 70/63/1 71/64/1
f 63/27/1 62/61/1 71/64/1 72/28/1
f 56/65/1 55/49/1 64/48/1 65/66/1
f 57/67/1 56/65/1 65/66/1 66/68/1
f 58/69/1 57/67/1 66/68/1 67/70/1
f 59/71/1 58/69/1 67/70/1 68/72/1
f 60/73/1 59/71/1 68/72/1 69/74/1
f 61/62/1 60/73/1 69/74/1 70/63/1
f 55/49/1 56/65/1 74/75/1 73/58/1
f 62/61/1 63/27/1 76/41/1 75/76/1
